<svg xmlns="http://www.w3.org/2000/svg" xmlns:xlink="http://www.w3.org/1999/xlink" style="enable-background:new 0 0 512 512" version="1.1" viewBox="0 0 512 512" xml:space="preserve"><style type="text/css">.st0{fill:#1d2628}.st1{fill:#091011}.st2{fill:#fff}</style><g id="Background_Bottom"><g><path d="M492.3,443.1c0,34.2-27.7,61.9-61.9,61.9H80.7c-34.2,0-61.9-27.7-61.9-61.9V93.4c0-34.2,27.7-61.9,61.9-61.9h349.7 c34.2,0,61.9,27.7,61.9,61.9V443.1z"/></g></g><g id="Background"><path d="M492.3,418.4c0,34.2-27.7,61.9-61.9,61.9H80.7c-34.2,0-61.9-27.7-61.9-61.9V68.6c0-34.2,27.7-61.9,61.9-61.9 h349.7c34.2,0,61.9,27.7,61.9,61.9V418.4z" class="st0"/></g><g id="Shadow"><path d="M492.3,284.4l-80.7-80.7c-9.2-14.6-26.1-22.8-44-20.6c-20.4,2.5-36.5,20-38.2,41.5c-0.1,1.2-0.4,2.5-1,3.4 c-8.5,12.2-17,24.3-25.6,36.4c-0.5,0.7-1.8,1.4-2.7,1.4c-5.9-0.2-11.3,1.4-16.7,3.5c-1.3,0.5-3.2,0.6-4.5,0.1 c-39.3-15.7-78.5-31.5-117.8-47.2c-3-1.2-4.7-2.7-5.8-5.9c-5.1-15-20.9-24.1-36.5-21.5c-15.6,2.6-27.5,16.5-27.6,32.2 c-0.2,16.7,11.9,29.5,26.5,32.6c61.6,68.2,213,219.1,216.9,220.8l95.8-0.2c34.2,0,61.9-27.7,61.9-61.9V284.4z" class="st1"/></g><g id="Symbol"><path d="M419,227c-0.7,22.6-18.6,41.9-41.1,43.7c-3.3,0.3-6,1.3-8.6,3.2c-11.9,8.9-24,17.5-35.8,26.3 c-1.3,1-2.4,2.8-2.7,4.4c-2.8,14.4-15.6,25.7-30.6,26.6c-15.3,0.9-28.5-8.5-32.9-23.2c-0.4-1.2-1.6-2.6-2.8-3.1 c-40.3-16.2-80.6-32.3-121-48.3c-1.3-0.5-3.4-0.1-4.8,0.5c-22,10.4-47.6-5.9-47.3-30.2c0.1-15.8,12-29.6,27.6-32.2 c15.7-2.6,31.4,6.5,36.5,21.5c1.1,3.2,2.8,4.7,5.8,5.9c39.3,15.7,78.5,31.5,117.8,47.2c1.3,0.5,3.2,0.4,4.5-0.1 c5.4-2.1,10.8-3.8,16.7-3.5c0.9,0,2.1-0.7,2.7-1.4c8.6-12.1,17.1-24.2,25.6-36.4c0.6-0.9,0.9-2.3,1-3.4c1.7-21.5,17.8-39,38.2-41.5 c21.6-2.6,41.8,9.9,48.7,30.5C417.7,217.8,418.1,222.5,419,227z M403.9,226.2c-0.6-16.9-14.4-29.6-31.3-29 c-16.4,0.7-29.1,14.3-28.4,30.8c0.6,16.5,14.3,29.1,30.7,28.5C391.4,255.9,404.5,242.2,403.9,226.2z M145.4,215.6 c-5-11-20.2-15.7-31.5-10.2c-12.3,5.9-17.3,20.9-11,33.1c4.9,9.5,18.5,16,25.7,12.1c-2.6-1.1-5.2-2.1-7.7-3.2 c-10.4-4.3-15.4-15-11.6-25c3.9-10.2,14.8-15,25.5-11.1C138,212.7,141.4,214.1,145.4,215.6z M294,275.3c3.3,1.3,6.3,2.5,9.3,3.8 c10.5,4.5,14.8,19.2,8.3,28.6c-5.7,8.3-14.2,10.9-23.6,7.2c-3.3-1.3-6.7-2.7-10.3-4.2c5.2,10.4,19.7,14.8,30.9,9.7 c11.5-5.2,16.7-18.9,11.8-31.2C316.1,278.5,303.8,271.9,294,275.3z" class="st2"/><path d="M373.4,203.1c13.4,0,24.7,10.9,24.6,23.8c-0.1,12.8-11.6,23.6-25,23.5c-12.9-0.1-23.1-10.6-23.1-23.7 C349.9,213.4,360.3,203.1,373.4,203.1z" class="st2"/></g></svg>