<svg xmlns="http://www.w3.org/2000/svg" xmlns:xlink="http://www.w3.org/1999/xlink" width="250" height="250" version="1.1" viewBox="0 0 250 250"><title/><desc/><g id="teamspeak_squircle" fill="none" fill-rule="evenodd" stroke="none" stroke-width="1"><rect id="squircle" width="250" height="250" x="0" y="0" fill="#364D69" rx="32"/><path id="shadow" fill="#000" fill-opacity=".25" d="M250,208 L250,218 C250,235.673112 235.673112,250 218,250 L32,250 C14.326888,250 2.164332e-15,235.673112 0,218 L0,208 C2.164332e-15,225.673112 14.326888,240 32,240 L218,240 C235.673112,240 250,225.673112 250,208 Z"/><path id="3d-shadow" fill="#000" d="M249.933594,148.653117 L249.933594,207.986328 C249.933594,225.65944 235.606706,239.986328 217.933594,239.986328 L134.437046,239.986328 L48.5683594,145.503906 L78.1210938,73.5117187 L122.75,50.3554687 L171.871094,60.1191406 L249.933594,148.653117 Z" opacity=".155"/><path id="Shape" fill="#FFF" d="M83.7933613,122.696328 C86.0524261,121.823543 88.2477495,121.623594 90.3793316,122.096481 C94.4764478,123.005418 100.893282,127.470427 108.871561,133.955049 C113.851095,138.002338 118.225675,142.701088 121.995302,148.0513 C122.693578,149.042355 123.007987,150.253361 122.880016,151.458933 C122.777711,152.42271 122.498299,153.456042 122.041778,154.55893 C121.018568,157.030859 118.873708,158.921068 115.607199,160.229559 C115.04985,160.452825 114.456844,160.573878 113.856582,160.586924 C101.112726,160.863907 93.4810208,160.340552 90.9614652,159.01686 C83.3687691,155.027907 79.4513883,146.027543 79.0496619,137.773175 C78.8212911,133.080785 79.4714939,128.952766 81.0002701,125.389118 C81.5309083,124.152167 82.5378402,123.181396 83.7933613,122.696328 Z M67.6928827,118.516097 L67.6928846,146.158975 C67.6928846,146.810315 67.3786587,147.421647 66.8490116,147.800747 C64.9108613,149.187996 62.033054,149.310505 58.2155898,148.168276 C55.2496104,147.280822 52.8169281,145.72043 50.9175428,143.487102 C49.3650302,141.661637 48.5125422,139.34341 48.5125422,136.947034 L48.5125422,120.242077 C48.5125422,116.038622 50.6916026,112.135625 54.2698612,109.929927 L58.181132,107.518955 C59.705673,95.8616074 64.1550397,85.1241871 70.7685014,76.0674254 C70.628405,75.7740345 70.4046267,75.3552705 70.0776085,74.8332494 C69.6706224,74.1835749 69.9118231,73.0423907 70.1988658,72.6930089 C75.6706699,66.0328544 82.6630326,59.7620114 90.8825987,55.3867352 C101.574729,49.6953128 114.155713,46.852391 126.243392,46.852391 L126.392911,46.852391 C138.480591,46.852391 151.061575,49.6953128 161.753705,55.3867352 C169.973271,59.7620114 176.965634,66.0328544 182.437438,72.6930089 C182.72448,73.0423907 182.965681,74.1835749 182.558695,74.8332494 C182.181865,75.4347856 181.942121,75.8992124 181.809539,76.1926899 C188.372674,85.2231282 192.788134,95.9153049 194.305653,107.518954 L198.216926,109.929927 C201.795185,112.135625 203.974245,116.038622 203.974245,120.242077 L203.974245,136.947034 C203.974245,139.34341 203.121757,141.661637 201.569245,143.487102 C199.669859,145.72043 197.237177,147.280822 194.271198,148.168276 C190.453734,149.310505 187.575926,149.187996 185.637776,147.800747 C185.108129,147.421647 184.793903,146.810315 184.793903,146.158975 L184.793903,144.713585 L184.767532,144.71343 L184.793903,118.526292 C184.793903,86.1897377 158.579946,59.9757813 126.243392,59.9757813 C93.9102367,59.9757813 67.6983918,86.1842282 67.6928827,118.516097 Z M165.621943,135.338664 C168.722876,135.653637 171.959117,136.645108 172.940264,141.852053 C173.921411,147.058999 171.857821,152.611912 169.182274,155.588631 C166.506727,158.565349 163.105956,160.726247 159.826239,161.227095 C154.263258,162.076622 149.68351,160.781992 144.908635,160.160918 C141.841185,159.761931 138.270968,159.001452 136.101708,157.833862 C135.233746,157.366688 134.121797,156.215772 132.76586,154.381115 C131.997267,153.341164 131.778838,151.993804 132.179515,150.764296 C132.975222,148.322608 135.30082,146.029784 139.156308,143.885824 C142.25638,142.161936 146.86514,139.92986 152.739588,138.059066 C156.498132,136.862109 162.52101,135.023691 165.621943,135.338664 Z M115.005898,199.608969 C115.302641,199.142084 115.565037,198.832697 115.793085,198.680809 C116.179294,198.423579 116.718352,198.346828 117.231906,198.184443 C118.373006,197.823628 119.639118,197.584692 122.129024,197.296209 C124.514142,197.019866 127.296773,196.800715 130.394236,196.436563 C136.725247,195.692261 150.059605,194.019797 160.340843,187.368884 C165.881214,183.784829 169.68396,180.657264 172.257082,177.617531 C174.882845,174.515612 176.322099,172.709024 177.171946,171.112521 C179.014958,167.650281 182.244542,160.554265 182.623102,159.273177 C183.001661,157.992088 184.58047,158.0887 185.348926,158.718646 C186.117382,159.348593 189.449,164.107202 188.770748,171.659658 C188.355262,176.286159 187.021286,180.784824 184.245781,184.941274 C182.490458,187.569952 180.279718,189.87431 176.975273,192.582948 C168.445857,199.574465 158.608244,201.131093 152.193237,201.792094 C145.778231,202.453094 136.408302,203.19296 128.790288,202.571393 C124.43804,202.216286 121.321135,201.783714 116.873556,200.846681 C116.319653,200.729983 115.697101,200.317412 115.005898,199.608969 Z"/></g></svg>